<?xml version="1.0" encoding="UTF-8"?>
<svg id="Layer_1" xmlns="http://www.w3.org/2000/svg" version="1.1" viewBox="0 0 460 224.8">
  <!-- Generator: Adobe Illustrator 29.3.1, SVG Export Plug-In . SVG Version: 2.1.0 Build 151)  -->
  <defs>
    <style>
      .st0 {
        fill: #fff;
      }
    </style>
  </defs>
  <g>
    <path class="st0" d="M212.4,76c-4.4,1.4-8.6,3.4-12.3,6-3.7,2.6-7.1,5.9-10.1,9.6-2.3,2.9-4.4,6.1-6.1,9.5v-25.4h-10.7v98.8h10.7v-40.6c0-7.8,1.1-14.7,3.4-20.7,2.2-5.9,5.3-11,9.1-15.1,3.8-4.1,8.3-7.2,13.2-9.2,5-2.1,10.3-3.1,15.8-3.1h1.6v-11.6h-.6c-4.9-.1-9.6.5-14.1,1.8Z"/>
    <path class="st0" d="M308.7,88.3c-3.9-4.6-8.7-8.3-14.3-11-5.5-2.6-11.9-4-18.8-4s-13,1.4-18.6,4.1c-5.7,2.7-10.6,6.4-14.8,11-4.2,4.6-7.5,10.1-9.9,16.4-2.4,6.2-3.6,13-3.6,20v.4c0,7.7,1.3,14.8,3.9,21.1,2.6,6.3,6.1,11.8,10.6,16.3,4.4,4.5,9.7,8,15.5,10.5,5.9,2.4,12.1,3.7,18.5,3.7,9.4,0,17.4-1.8,23.8-5.3,6.4-3.5,12.1-8,17.1-13.4l.5-.5-7.5-6.6-.4.5c-4,4.3-8.7,7.9-13.9,10.8-5.2,2.9-11.6,4.3-19.1,4.3s-9.3-.8-13.6-2.5c-4.3-1.7-8.2-4.2-11.6-7.4-3.4-3.2-6.2-7.2-8.5-11.8-2.2-4.4-3.5-9.5-3.9-15.2h80.7v-.6c.2-.8.3-1.4.3-1.8v-2.1c0-7.3-1.1-14.2-3.2-20.4-2.1-6.2-5.2-11.7-9.1-16.4ZM275.3,83.3c5.5,0,10.4,1,14.5,3.1,4.1,2.1,7.6,4.8,10.4,8.2,2.8,3.4,5,7.4,6.6,11.8,1.5,4.2,2.5,8.7,2.9,13.4h-69.7c.4-5,1.6-9.7,3.5-14.1,2-4.6,4.6-8.5,7.6-11.9,3.1-3.3,6.7-5.9,10.8-7.8,4.1-1.9,8.6-2.8,13.3-2.8Z"/>
    <path class="st0" d="M417.7,75.6l-34.8,86.1-39.9-85.8-.2-.4h-12.4l47.1,97.4c-1.7,4-3.5,7.5-5.2,10.3-1.7,2.9-3.6,5.2-5.4,7-1.8,1.8-3.8,3-5.9,3.8-2.1.7-4.4,1.1-6.9,1.1-3.6,0-6.7-.3-9-.8-2.3-.6-4.8-1.5-7.3-2.7l-.6-.3-3.7,9.6.6.3c3.3,1.4,6.5,2.5,9.5,3.3,3,.7,6.4,1.1,10.1,1.1,7.1,0,13.4-2.1,18.7-6.4,5.2-4.2,10.1-11.5,14.4-21.8l42.2-100.9.4-.9h-11.8Z"/>
  </g>
  <g>
    <path class="st0" d="M39.1,22.1h-4v8h-3.7v3.5h3.7v16c0,1.3.2,2.5.6,3.4.4,1,.9,1.7,1.6,2.3.7.6,1.5,1,2.4,1.3.9.3,1.9.4,3,.4s1.8,0,2.6-.3c.8-.2,1.5-.5,2.2-.8v-3.4c-.7.3-1.3.6-1.9.7-.6.1-1.2.2-1.9.2-1.3,0-2.4-.3-3.2-1-.8-.6-1.2-1.8-1.2-3.4v-15.5h8.4v-3.5h-8.4v-8Z"/>
    <path class="st0" d="M75,32.5c-.9-.9-1.9-1.7-3.2-2.2-1.3-.5-2.7-.8-4.3-.8-2.3,0-4.2.5-5.6,1.5-1.4,1-2.6,2.2-3.5,3.7v-15.6h-4v37.5h4v-15.2c0-1.2.2-2.4.6-3.4.4-1,1-1.9,1.7-2.6.7-.7,1.6-1.3,2.5-1.7,1-.4,2-.6,3.2-.6,2.4,0,4.2.7,5.4,2.2,1.3,1.4,1.9,3.4,1.9,5.8v15.5h4v-16.5c0-1.6-.2-3-.7-4.3-.5-1.3-1.1-2.4-2-3.4Z"/>
    <path class="st0" d="M108.7,38.1c-.5-1.7-1.4-3.2-2.4-4.5-1.1-1.3-2.4-2.3-3.9-3-1.5-.7-3.3-1.1-5.2-1.1s-3.6.4-5.1,1.1c-1.6.7-2.9,1.7-4,3-1.1,1.2-2,2.7-2.6,4.4-.6,1.7-1,3.5-1,5.4s.4,3.9,1.1,5.6c.7,1.7,1.7,3.2,2.9,4.4,1.2,1.2,2.6,2.2,4.2,2.8,1.6.7,3.3,1,5.1,1s4.7-.5,6.4-1.4c1.7-.9,3.2-2.1,4.6-3.6l-2.5-2.2c-1.1,1.1-2.3,2-3.6,2.7-1.3.7-2.9,1-4.8,1s-2.3-.2-3.3-.6c-1.1-.4-2-1-2.9-1.7-.9-.8-1.6-1.7-2.1-2.8-.5-1.1-.9-2.4-1-3.8h21c0-.2,0-.5,0-.7v-.6c0-1.9-.3-3.8-.8-5.5ZM88.5,41.9c.1-1.3.4-2.5.9-3.6.5-1.1,1.1-2,1.8-2.8.8-.8,1.6-1.4,2.6-1.9,1-.5,2.1-.7,3.2-.7s2.5.2,3.5.7c1,.5,1.8,1.2,2.5,2,.7.8,1.2,1.8,1.6,2.9.4,1.1.6,2.2.7,3.4h-17Z"/>
  </g>
  <path class="st0" d="M128.8,29.7v66.3c-1.9-2.7-4-5.3-6.3-7.7-2.6-2.8-5.6-5.3-8.9-7.5-3.3-2.2-7-3.9-11.1-5.2-4.1-1.3-8.7-1.9-13.5-1.9s-11.8,1.2-17.4,3.6c-5.7,2.4-10.8,5.8-15.3,10.2-4.5,4.4-8.1,9.9-10.9,16.2-2.8,6.3-4.2,13.6-4.2,21.5v.4c0,7.9,1.4,15.1,4.2,21.5,2.7,6.3,6.4,11.7,10.9,16.1,4.5,4.4,9.6,7.7,15.3,10,5.7,2.3,11.6,3.5,17.4,3.5s9.4-.7,13.4-2c4-1.3,7.7-3.1,11-5.3,3.3-2.2,6.2-4.8,8.9-7.7,2.3-2.6,4.5-5.3,6.4-8.1v20.9h10.2V29.7h-10.2ZM104.7,86.4c4.7,2,9,4.8,12.6,8.4,3.6,3.6,6.6,8,8.8,13.1,2,4.5,3,9.5,3.2,14.8l-8-2.8-18.8-34.3c.7.3,1.5.5,2.2.8ZM75.1,86.2c4.6-1.9,9.6-2.8,14.9-2.8s4,.2,6,.5c0,.2,0,.4.2.6l18.1,33-54.5-19.1c1-1.4,2.1-2.8,3.3-4,3.4-3.5,7.5-6.2,12-8.1ZM52.1,124.6c0-6.4,1-12.2,2.9-17.3.6-1.6,1.4-3.2,2.1-4.6l35.9,12.6-39.8,20.5c-.7-3.4-1.1-7-1.1-10.7v-.4ZM55.1,142.3c-.2-.5-.4-1.1-.5-1.6l44.9-23.1s0,0,0,0l29.2,10.2c.2,0,.4,0,.6.1-.1,2.6-.5,5.1-1,7.5l-21,10.2-27-10.4c-1.3-.5-2.7.1-3.2,1.4-.5,1.3.1,2.7,1.4,3.2l22.6,8.7-28.5,13.8c-3.5-1.8-6.6-4.1-9.3-7-3.5-3.6-6.2-8-8.2-13.1ZM117.3,155.1c-3.6,3.6-7.9,6.5-12.6,8.5-4.7,2-9.6,3-14.7,3s-7.6-.6-11.2-1.7l47.3-23s0,0,0,.1c-2.2,5-5.2,9.4-8.8,13.1Z"/>
</svg>