<?xml version="1.0" encoding="UTF-8"?>
<svg id="Layer_1" xmlns="http://www.w3.org/2000/svg" version="1.1" viewBox="0 0 284.5 287.7">
  <!-- Generator: Adobe Illustrator 29.4.0, SVG Export Plug-In . SVG Version: 2.1.0 Build 152)  -->
  <defs>
    <style>
      .st0 {
        fill: #9d7843;
      }

      .st1 {
        fill: #22150d;
      }
    </style>
  </defs>
  <circle class="st1" cx="142" cy="144.1" r="92"/>
  <path class="st1" d="M142,4.8C65.1,4.8,2.7,67.2,2.7,144.1s62.4,139.4,139.4,139.4,139.4-62.4,139.4-139.4S219,4.8,142,4.8ZM142,242c-54,0-97.8-43.8-97.8-97.8s43.8-97.8,97.8-97.8,97.8,43.8,97.8,97.8-43.8,97.8-97.8,97.8Z"/>
  <path class="st0" d="M102.8,125.2c0,5.5-2.5,10.3-11.5,10.4h-12.5v-32.1h13c5.6,0,7.2,4.3,7.2,7s-1.3,4-2.2,5c3.8,1.7,5.9,5.3,5.9,9.7ZM83.8,114.4h6.6c2.8,0,3.8-1.4,3.8-3.3s-.9-3.1-3-3.1h-7.4v6.4ZM97.7,125.2c0-4.1-2.3-6.7-6.8-6.7h-7.1v12.4h7.1c4.7,0,6.7-2.2,6.7-5.7Z"/>
  <path class="st0" d="M159.6,131.4c-4.7,3.4-10.2,4.8-17.1,4.8-10.6,0-20.3-4.4-24.9-12.8h-4.4v12.3h-5v-32.1h11.6c7.2,0,10.8,4.5,10.8,9.5s-2.6,8.8-7.9,9.9c4,5.5,11.6,8.9,19.7,8.9s10.8-1.1,15.1-3.8l2,3.3ZM113.2,118.5h6.6c4.1,0,6-2.4,6-5.1s-1.9-5.1-6-5.1h-6.6v10.2ZM135.5,115.7v-12.1h4.8v11.9c0,4.7,2.1,6.5,5.8,6.5s5.8-1.8,5.8-6.5v-11.9h4.8v12.1c0,6.9-3.7,11-10.6,11s-10.6-4.1-10.6-11Z"/>
  <path class="st0" d="M164.1,103.6h4.9v32.1h-4.9v-32.1Z"/>
  <path class="st0" d="M202.8,103.6v32.5h-.5l-20.9-21v20.6h-4.9v-32.5h.5l20.9,21v-20.6h4.9Z"/>
  <path class="st0" d="M103.1,174.3c0,5.5-2.5,10.3-11.5,10.4h-12.5v-32.1h13c5.6,0,7.2,4.3,7.2,7s-1.3,4-2.2,5c3.8,1.7,5.9,5.3,5.9,9.7ZM84.1,163.5h6.6c2.8,0,3.8-1.4,3.8-3.3s-.9-3.1-3-3.1h-7.4v6.4ZM98,174.3c0-4.1-2.3-6.7-6.8-6.7h-7.1v12.4h7.1c4.7,0,6.7-2.2,6.7-5.7Z"/>
  <path class="st0" d="M107.3,168.7c0-9.2,7.4-16.5,16.5-16.5s16.5,7.3,16.5,16.5-7.4,16.5-16.5,16.5-16.5-7.3-16.5-16.5ZM135.3,168.7c0-6.7-4.8-11.7-11.4-11.7s-11.4,5-11.4,11.7,4.8,11.7,11.4,11.7,11.4-5,11.4-11.7Z"/>
  <path class="st0" d="M147.8,152.6l6.3,19.8,8.2-20.2h.5l8.3,20.2,6.3-19.8h5.2l-10.7,32.5h-.5l-8.8-21-8.8,21h-.5l-10.7-32.5h5.2Z"/>
  <path class="st0" d="M205.2,180l-.3,4.8h-17.7v-32.1h4.9v27.3h13.1Z"/>
  <g>
    <g>
      <path class="st0" d="M62.9,236.6l-3.5-3.3-2.1,1-1.4-1.3,11.9-5.2h.1c0,.1-4.5,12.4-4.5,12.4l-1.4-1.3.8-2.2ZM63.5,234.9l1.5-4-3.9,1.7,2.4,2.3Z"/>
      <path class="st0" d="M81.5,241l-5.6,8.4-1.5-1,5.6-8.4-2.7-1.8,1.1-1.4,6.7,4.5-.9,1.5-2.7-1.8Z"/>
      <path class="st0" d="M116.1,260.4c-1,3.4-3.7,5.1-7.3,4.1l-3.9-1.1,3.2-11.4,3.9,1.1c3.7,1,5.1,3.9,4.2,7.3ZM114.3,259.9c.7-2.5-.4-4.4-2.8-5.1l-2.3-.6-2.2,8,2.3.6c2.4.7,4.3-.4,5-2.9Z"/>
      <path class="st0" d="M134.6,268.9l-7.1-.6,1-11.8,6.8.6v1.8s-5.1-.5-5.1-.5l-.2,2.5,3.4.3-.2,1.8-3.4-.3-.4,4,5.2.5v1.8Z"/>
      <path class="st0" d="M170.5,253.3l2.7,11.7h-.2s-9.1-5.8-9.1-5.8l1.7,7.4-1.7.4-2.7-11.7h.2s9.1,5.8,9.1,5.8l-1.7-7.4,1.7-.4Z"/>
      <path class="st0" d="M192.7,257.5l-6.5,2.9-4.7-10.8,6.2-2.7.8,1.6-4.7,2.1,1,2.3,3.1-1.4.7,1.6-3.1,1.4,1.6,3.7,4.8-2.1.8,1.6Z"/>
      <path class="st0" d="M198.3,240.9l7.1,4.8-1.8-8.4,1.6-1.1,2.5,12.8h-.2c0,.1-10.9-7.1-10.9-7.1l1.6-1.1Z"/>
      <path class="st0" d="M226.7,233.2l-5.1,4.9-8.2-8.6,4.9-4.7,1.3,1.2-3.7,3.5,1.7,1.8,2.4-2.3,1.2,1.3-2.4,2.3,2.8,2.9,3.8-3.6,1.3,1.2Z"/>
    </g>
    <g>
      <path class="st0" d="M48.8,64.1c.9-1.1,2-1.8,3.5-2.2l.6,1.6c-1.2.3-2,.8-2.7,1.7-1.4,1.8-1.1,4.4.8,6,1.9,1.5,4.5,1.3,6-.6.8-1,1.1-2,1-3h1.7c.1,1.5-.3,2.9-1.3,4.1-2.1,2.6-5.8,3-8.5.9-2.7-2.1-3.2-5.8-1.1-8.5Z"/>
      <path class="st0" d="M60.3,51.7l1.3-1.2,4.6,5.3c1.4,1.6,3,1.6,4.2.5,1.2-1.1,1.4-2.7,0-4.3l-4.6-5.3,1.3-1.2,4.7,5.4c2,2.3,1.9,4.8-.3,6.7-2.2,1.9-4.7,1.7-6.7-.6l-4.7-5.4Z"/>
      <path class="st0" d="M78.3,37.8l1.5-1,6.3,10-1.5,1-6.3-10Z"/>
      <path class="st0" d="M95.3,40.4l.4-1.8c.7.2,1.9.3,3-.2,1.1-.5,1.6-1.2,1.2-2-.3-.7-1.4-1.1-3.3-1.3-2.5-.3-3.4-.7-4-2-.7-1.5.1-3.3,2.1-4.2.9-.4,2.2-.5,3.1-.4l-.3,1.7c-.6-.1-1.6,0-2.2.2-1,.5-1.4,1.2-1.1,1.8.3.6.8.7,2.9,1,2.7.3,3.8.9,4.5,2.4.8,1.8,0,3.5-2.3,4.4-1.4.6-3.1.6-4,.3Z"/>
      <path class="st0" d="M110.2,23.6l1.7-.5,3.1,11.4-1.7.5-3.1-11.4Z"/>
      <path class="st0" d="M134.7,19.4l1.2,11.9h-.2s-8.3-6.9-8.3-6.9l.8,7.6-1.8.2-1.2-11.9h.2s8.3,6.9,8.3,6.9l-.8-7.6,1.8-.2Z"/>
      <path class="st0" d="M154.6,31.8l-7.1-.6,1-11.8,6.8.6v1.8s-5.1-.4-5.1-.4l-.2,2.5,3.4.3v1.8c-.1,0-3.5-.3-3.5-.3l-.3,4,5.2.4v1.8Z"/>
      <path class="st0" d="M185.7,35.2l-3.4,1.9,4.3,1.8-.8,1.6-6.5-2.7.6-1.5,5.1-2.9c.9-.5,1.7-1,2.1-1.9.3-.7,0-1.5-.9-1.8-1-.4-2.2,0-2.5.2l-.6-1.8c.4-.2,2-.8,3.8,0,2.1.9,2.7,2.7,2.1,4.1-.6,1.6-2.1,2.4-3.3,3.1Z"/>
      <path class="st0" d="M216,59.4c-1.2,0-2.4-.4-3.9-1.7-2.8-2.4-2.8-6-.6-8.6,2.2-2.6,5.9-3,8.5-.7,1.3,1.1,1.9,2.4,2.1,3.7l-1.6.4c-.2-1.1-.8-2.1-1.6-2.8-1.8-1.5-4.2-1.4-5.9.6-1.7,2-1.5,4.3.4,6,.7.6,1.4.9,2,1.1l2-2.3-1.5-1.3,1.2-1.3,2.8,2.4-3.8,4.4Z"/>
      <path class="st0" d="M227.5,64.3c2.7-2.1,6.4-1.7,8.5,1,2,2.6,1.6,6.4-1.1,8.5-2.7,2.1-6.4,1.7-8.5-1-2-2.6-1.6-6.4,1.1-8.5ZM233.7,72.3c2-1.5,2.3-4,.9-5.9-1.5-1.9-4-2.1-6-.6-2,1.5-2.3,4-.9,5.9,1.5,1.9,4,2.1,6,.6Z"/>
    </g>
    <g>
      <g>
        <circle class="st0" cx="248.7" cy="194" r="5.9"/>
        <circle class="st0" cx="256.1" cy="178.1" r="5"/>
        <circle class="st0" cx="260.6" cy="161.1" r="4.3"/>
        <circle class="st0" cx="262.2" cy="143.6" r="3.6"/>
        <circle class="st0" cx="260.6" cy="126.1" r="3.1"/>
        <circle class="st0" cx="256.1" cy="109.2" r="2.6"/>
      </g>
      <g>
        <circle class="st0" cx="28.6" cy="112.5" r="5.9"/>
        <circle class="st0" cx="24.1" cy="129.4" r="5"/>
        <circle class="st0" cx="22.5" cy="146.9" r="4.3"/>
        <circle class="st0" cx="24.1" cy="164.4" r="3.6"/>
        <circle class="st0" cx="28.6" cy="181.4" r="3.1"/>
        <circle class="st0" cx="36" cy="197.3" r="2.6"/>
      </g>
    </g>
  </g>
</svg>