<svg xmlns="http://www.w3.org/2000/svg" viewBox="0 0 258.86 69.92"><defs><style>.cls-1{fill:#00553d;}.cls-2{fill:#98002e;}.cls-3{fill:none;stroke:#98002e;stroke-width:5.55px;}</style></defs><g id="Layer_2" data-name="Layer 2"><g id="Layer_1-2" data-name="Layer 1"><polygon class="cls-1" points="193.83 23.86 202.76 13.57 197.83 13.57 197.83 0 189.62 0 189.62 13.66 184.39 13.76 193.83 23.86"/><polygon class="cls-1" points="193.83 46.06 202.76 56.35 197.84 56.35 197.84 69.92 189.62 69.92 189.62 56.26 184.39 56.17 193.83 46.06"/><path class="cls-2" d="M11.54,65.08A21.42,21.42,0,0,1,4.59,60v7H0V24.76H3.42a15.67,15.67,0,0,1,11.43,4.73,16,16,0,0,1,1.4,21.22,16.08,16.08,0,0,1-8.52,5.77,15.88,15.88,0,0,0,5.46,4.29,15.69,15.69,0,0,0,6.87,1.54V67A20,20,0,0,1,11.54,65.08ZM12,33.18a10.86,10.86,0,0,0-7.4-3.7V52.39A11.15,11.15,0,0,0,12,48.64a11.13,11.13,0,0,0,3-7.73A11.19,11.19,0,0,0,12,33.18Z"/><path class="cls-2" d="M30.2,57v5.3H46.06v4.59H25.56V57H22.87V52.33h2.69V24.71H46.34v4.6H30.2v23H46.34V57Z"/><path class="cls-2" d="M64.5,67V37.1l-10-5.94V67h-4.6V23L64.5,31.71V24.76h4.59V67Z"/><path class="cls-2" d="M89.91,60.63A20.46,20.46,0,0,1,75.21,67h-2.3V24.77h2.3a20.46,20.46,0,0,1,14.7,6.33A20.22,20.22,0,0,1,96,45.84,20.29,20.29,0,0,1,89.91,60.63ZM87.42,35.19a15.84,15.84,0,0,0-9.92-5.6V62.14a15.79,15.79,0,0,0,9.92-5.6,16.5,16.5,0,0,0,0-21.35Z"/><path class="cls-2" d="M106.52,57v5.3h15.85v4.59h-20.5V57H99.18V52.33h2.69V24.71h20.78v4.6H106.52v23h16.13V57Z"/><path class="cls-2" d="M132.69,62.31h14.79V67H125.35l18.21-37.54H129.11V24.77H150.9Z"/><path class="cls-2" d="M170.51,67h-4.37L152.81,24.77h4.87l10.65,34.29L179,24.77h4.88Z"/><path class="cls-2" d="M227.68,66.86h-1.21a20.19,20.19,0,0,1-14.65-6.3,20.36,20.36,0,0,1-6.08-14.77V24.67h4.59V45.79A16.58,16.58,0,0,0,224.18,62V24.67h4.65V66.92A10.93,10.93,0,0,0,227.68,66.86Z"/><path class="cls-2" d="M254.77,62.75a13.46,13.46,0,0,1-9.92,4.12A13.61,13.61,0,0,1,237,64.43,14,14,0,0,1,231.8,58l4.31-1.68a9.46,9.46,0,0,0,3.44,4.28,9.42,9.42,0,0,0,14.71-7.76,6.49,6.49,0,0,0-.7-3.11,7.5,7.5,0,0,0-1.93-2.33A11.85,11.85,0,0,0,249.5,46c-.82-.45-1.7-.89-2.63-1.34-.48-.26-1-.51-1.45-.73s-1-.45-1.52-.67l-.36-.15a2,2,0,0,1-.36-.19,24.49,24.49,0,0,1-5.32-3.2,6.7,6.7,0,0,1-2.41-5.6,9,9,0,0,1,2.77-6.62,9.33,9.33,0,0,1,12.41-.73,9,9,0,0,1,3.31,5.16L249.46,33a4.75,4.75,0,0,0-9.36,1.12,2.92,2.92,0,0,0,.37,1.49,3.28,3.28,0,0,0,1,1.09,9,9,0,0,0,2,1.24L245.81,39c.45.22.89.43,1.32.61s.86.4,1.31.62c1.16.56,2.26,1.13,3.31,1.71a18.47,18.47,0,0,1,2.85,1.93,12.65,12.65,0,0,1,3.11,3.79,11,11,0,0,1,1.15,5.18A13.57,13.57,0,0,1,254.77,62.75Z"/><path class="cls-3" d="M200.44,35a6.88,6.88,0,1,1-6.88-6.88A6.88,6.88,0,0,1,200.44,35Z"/></g></g></svg>